<svg width="56" height="30" viewBox="0 0 56 30" fill="none" xmlns="http://www.w3.org/2000/svg">
<path d="M19.4 8.6C19.4 7 18.6 6.2 17 6.2H10.2C8.6 6.2 7.8 7 7.8 8.6V21.4C7.8 23 8.6 23.8 10.2 23.8H17C18.6 23.8 19.4 23 19.4 21.4V8.6ZM26.6 21.4C26.6 24.2 25.96 26.24 24.68 27.52C23.4267 28.7733 21.4 29.4 18.6 29.4H8.6C5.8 29.4 3.76 28.7733 2.48 27.52C1.22667 26.24 0.6 24.2 0.6 21.4V8.6C0.6 5.8 1.22667 3.77333 2.48 2.52C3.76 1.24 5.8 0.599998 8.6 0.599998H18.6C21.4 0.599998 23.4267 1.24 24.68 2.52C25.96 3.77333 26.6 5.8 26.6 8.6V21.4Z" fill="#E53E3E"/>
<path d="M30.6188 0.999998H47.4188C50.2188 0.999998 52.2454 1.64 53.4988 2.92C54.7788 4.17333 55.4188 6.2 55.4188 9V13C55.4188 15.8 54.7788 17.84 53.4988 19.12C52.2454 20.3733 50.2188 21 47.4188 21H37.8188V29H30.6188V0.999998ZM48.2188 9C48.2188 7.4 47.4188 6.6 45.8188 6.6H37.8188V15.4H45.8188C47.4188 15.4 48.2188 14.6 48.2188 13V9Z" fill="#0000FF"/>
</svg>
