<svg width="74" height="44" viewBox="0 0 74 44" fill="none" xmlns="http://www.w3.org/2000/svg">
<path d="M32.0628 44H2.30281C1.54281 44 0.982813 43.84 0.622813 43.52C0.302813 43.16 0.142813 42.6 0.142813 41.84V33.8C0.142813 33.04 0.262813 32.38 0.502813 31.82C0.742813 31.22 1.12281 30.64 1.64281 30.08L16.2228 12.38H3.38281C2.62281 12.38 2.06281 12.22 1.70281 11.9C1.38281 11.54 1.22281 10.98 1.22281 10.22V2.96C1.22281 2.2 1.38281 1.66 1.70281 1.34C2.06281 0.979998 2.62281 0.799998 3.38281 0.799998H30.9828C31.7428 0.799998 32.2828 0.979998 32.6028 1.34C32.9628 1.66 33.1428 2.2 33.1428 2.96V11.9C33.1428 12.7 33.0228 13.4 32.7828 14C32.5428 14.56 32.1628 15.12 31.6428 15.68L17.7228 32.54H32.0628C32.8228 32.54 33.3628 32.72 33.6828 33.08C34.0428 33.4 34.2228 33.94 34.2228 34.7V41.84C34.2228 42.6 34.0428 43.16 33.6828 43.52C33.3628 43.84 32.8228 44 32.0628 44ZM25.7628 11.36C26.0428 11 26.2828 10.66 26.4828 10.34C26.6828 9.98 26.7828 9.58 26.7828 9.14V8.18C26.7828 7.5 26.6228 7 26.3028 6.68C26.0228 6.36 25.5628 6.2 24.9228 6.2H6.62281V6.8H24.9228C25.2428 6.8 25.5228 6.9 25.7628 7.1C26.0428 7.26 26.1828 7.62 26.1828 8.18V9.02C26.1828 9.42 26.1028 9.74 25.9428 9.98C25.8228 10.22 25.6228 10.52 25.3428 10.88L7.76281 33.44C7.48281 33.8 7.24281 34.16 7.04281 34.52C6.84281 34.84 6.74281 35.22 6.74281 35.66V36.62C6.74281 37.3 6.88281 37.8 7.16281 38.12C7.48281 38.44 7.96281 38.6 8.60281 38.6H28.8228V38H8.60281C8.28281 38 7.98281 37.92 7.70281 37.76C7.46281 37.56 7.34281 37.18 7.34281 36.62V35.78C7.34281 35.38 7.40281 35.06 7.52281 34.82C7.68281 34.58 7.90281 34.28 8.18281 33.92L25.7628 11.36Z" fill="white"/>
<path d="M71.6722 44H41.9122C41.1522 44 40.5922 43.84 40.2322 43.52C39.9122 43.16 39.7522 42.6 39.7522 41.84V33.8C39.7522 33.04 39.8722 32.38 40.1122 31.82C40.3522 31.22 40.7322 30.64 41.2522 30.08L55.8322 12.38H42.9922C42.2322 12.38 41.6722 12.22 41.3122 11.9C40.9922 11.54 40.8322 10.98 40.8322 10.22V2.96C40.8322 2.2 40.9922 1.66 41.3122 1.34C41.6722 0.979998 42.2322 0.799998 42.9922 0.799998H70.5922C71.3522 0.799998 71.8922 0.979998 72.2122 1.34C72.5722 1.66 72.7522 2.2 72.7522 2.96V11.9C72.7522 12.7 72.6322 13.4 72.3922 14C72.1522 14.56 71.7722 15.12 71.2522 15.68L57.3322 32.54H71.6722C72.4322 32.54 72.9722 32.72 73.2922 33.08C73.6522 33.4 73.8322 33.94 73.8322 34.7V41.84C73.8322 42.6 73.6522 43.16 73.2922 43.52C72.9722 43.84 72.4322 44 71.6722 44ZM65.3722 11.36C65.6522 11 65.8922 10.66 66.0922 10.34C66.2922 9.98 66.3922 9.58 66.3922 9.14V8.18C66.3922 7.5 66.2322 7 65.9122 6.68C65.6322 6.36 65.1722 6.2 64.5322 6.2H46.2322V6.8H64.5322C64.8522 6.8 65.1322 6.9 65.3722 7.1C65.6522 7.26 65.7922 7.62 65.7922 8.18V9.02C65.7922 9.42 65.7122 9.74 65.5522 9.98C65.4322 10.22 65.2322 10.52 64.9522 10.88L47.3722 33.44C47.0922 33.8 46.8522 34.16 46.6522 34.52C46.4522 34.84 46.3522 35.22 46.3522 35.66V36.62C46.3522 37.3 46.4922 37.8 46.7722 38.12C47.0922 38.44 47.5722 38.6 48.2122 38.6H68.4322V38H48.2122C47.8922 38 47.5922 37.92 47.3122 37.76C47.0722 37.56 46.9522 37.18 46.9522 36.62V35.78C46.9522 35.38 47.0122 35.06 47.1322 34.82C47.2922 34.58 47.5122 34.28 47.7922 33.92L65.3722 11.36Z" fill="#36CE00"/>
</svg>
