<svg width="237" height="46" viewBox="0 0 237 46" fill="none" xmlns="http://www.w3.org/2000/svg">
<path d="M32.0628 45H2.30281C1.54281 45 0.982813 44.84 0.622813 44.52C0.302813 44.16 0.142813 43.6 0.142813 42.84V34.8C0.142813 34.04 0.262813 33.38 0.502813 32.82C0.742813 32.22 1.12281 31.64 1.64281 31.08L16.2228 13.38H3.38281C2.62281 13.38 2.06281 13.22 1.70281 12.9C1.38281 12.54 1.22281 11.98 1.22281 11.22V3.96C1.22281 3.2 1.38281 2.66 1.70281 2.34C2.06281 1.98 2.62281 1.8 3.38281 1.8H30.9828C31.7428 1.8 32.2828 1.98 32.6028 2.34C32.9628 2.66 33.1428 3.2 33.1428 3.96V12.9C33.1428 13.7 33.0228 14.4 32.7828 15C32.5428 15.56 32.1628 16.12 31.6428 16.68L17.7228 33.54H32.0628C32.8228 33.54 33.3628 33.72 33.6828 34.08C34.0428 34.4 34.2228 34.94 34.2228 35.7V42.84C34.2228 43.6 34.0428 44.16 33.6828 44.52C33.3628 44.84 32.8228 45 32.0628 45ZM25.7628 12.36C26.0428 12 26.2828 11.66 26.4828 11.34C26.6828 10.98 26.7828 10.58 26.7828 10.14V9.18C26.7828 8.5 26.6228 8 26.3028 7.68C26.0228 7.36 25.5628 7.2 24.9228 7.2H6.62281V7.8H24.9228C25.2428 7.8 25.5228 7.9 25.7628 8.1C26.0428 8.26 26.1828 8.62 26.1828 9.18V10.02C26.1828 10.42 26.1028 10.74 25.9428 10.98C25.8228 11.22 25.6228 11.52 25.3428 11.88L7.76281 34.44C7.48281 34.8 7.24281 35.16 7.04281 35.52C6.84281 35.84 6.74281 36.22 6.74281 36.66V37.62C6.74281 38.3 6.88281 38.8 7.16281 39.12C7.48281 39.44 7.96281 39.6 8.60281 39.6H28.8228V39H8.60281C8.28281 39 7.98281 38.92 7.70281 38.76C7.46281 38.56 7.34281 38.18 7.34281 37.62V36.78C7.34281 36.38 7.40281 36.06 7.52281 35.82C7.68281 35.58 7.90281 35.28 8.18281 34.92L25.7628 12.36ZM42.3322 45C41.5722 45 41.0122 44.84 40.6522 44.52C40.3322 44.16 40.1722 43.6 40.1722 42.84V35.7C40.1722 34.94 40.3322 34.4 40.6522 34.08C41.0122 33.72 41.5722 33.54 42.3322 33.54H48.2722V13.38H42.3322C41.5722 13.38 41.0122 13.22 40.6522 12.9C40.3322 12.54 40.1722 11.98 40.1722 11.22V3.96C40.1722 3.2 40.3322 2.66 40.6522 2.34C41.0122 1.98 41.5722 1.8 42.3322 1.8H67.8922C68.6522 1.8 69.1922 1.98 69.5122 2.34C69.8722 2.66 70.0522 3.2 70.0522 3.96V11.22C70.0522 11.98 69.8722 12.54 69.5122 12.9C69.1922 13.22 68.6522 13.38 67.8922 13.38H62.0722V33.54H67.8922C68.6522 33.54 69.1922 33.72 69.5122 34.08C69.8722 34.4 70.0522 34.94 70.0522 35.7V42.84C70.0522 43.6 69.8722 44.16 69.5122 44.52C69.1922 44.84 68.6522 45 67.8922 45H42.3322ZM64.6522 39.6V39H55.4722V7.8H64.6522V7.2H45.5722V7.8H54.8722V39H45.5722V39.6H64.6522ZM88.9203 45H79.6203C78.8603 45 78.3003 44.84 77.9403 44.52C77.6203 44.16 77.4603 43.6 77.4603 42.84V3.96C77.4603 3.2 77.6203 2.66 77.9403 2.34C78.3003 1.98 78.8603 1.8 79.6203 1.8H97.9803C103.42 1.8 107.14 2.88 109.14 5.04C111.14 7.2 112.14 10.02 112.14 13.5V21.18C112.14 24.66 111.14 27.48 109.14 29.64C107.14 31.8 103.42 32.88 97.9803 32.88H91.0803V42.84C91.0803 43.6 90.9003 44.16 90.5403 44.52C90.2203 44.84 89.6803 45 88.9203 45ZM97.1403 27.78C99.0203 27.78 100.54 27.58 101.7 27.18C102.9 26.78 103.82 26.24 104.46 25.56C105.1 24.84 105.54 24 105.78 23.04C106.02 22.04 106.14 20.96 106.14 19.8V15.36C106.14 14.2 106.02 13.12 105.78 12.12C105.54 11.12 105.1 10.26 104.46 9.54C103.82 8.82 102.9 8.26 101.7 7.86C100.54 7.42 99.0203 7.2 97.1403 7.2H84.1803V39.6H84.7803V27.78H97.1403ZM84.7803 27.18V7.8H97.1403C98.9003 7.8 100.32 8 101.4 8.4C102.52 8.76 103.38 9.28 103.98 9.96C104.58 10.64 104.98 11.44 105.18 12.36C105.42 13.28 105.54 14.28 105.54 15.36V19.8C105.54 20.88 105.42 21.88 105.18 22.8C104.98 23.68 104.58 24.46 103.98 25.14C103.38 25.78 102.52 26.28 101.4 26.64C100.32 27 98.9003 27.18 97.1403 27.18H84.7803ZM90.9603 13.02V22.08H96.3603C97.5203 22.08 98.2803 21.78 98.6403 21.18C99.0003 20.58 99.1803 19.9 99.1803 19.14V15.96C99.1803 15.2 99.0003 14.52 98.6403 13.92C98.2803 13.32 97.5203 13.02 96.3603 13.02H90.9603Z" fill="white"/>
<path d="M148.899 45H119.139C118.379 45 117.819 44.84 117.459 44.52C117.139 44.16 116.979 43.6 116.979 42.84V34.8C116.979 34.04 117.099 33.38 117.339 32.82C117.579 32.22 117.959 31.64 118.479 31.08L133.059 13.38H120.219C119.459 13.38 118.899 13.22 118.539 12.9C118.219 12.54 118.059 11.98 118.059 11.22V3.96C118.059 3.2 118.219 2.66 118.539 2.34C118.899 1.98 119.459 1.8 120.219 1.8H147.819C148.579 1.8 149.119 1.98 149.439 2.34C149.799 2.66 149.979 3.2 149.979 3.96V12.9C149.979 13.7 149.859 14.4 149.619 15C149.379 15.56 148.999 16.12 148.479 16.68L134.559 33.54H148.899C149.659 33.54 150.199 33.72 150.519 34.08C150.879 34.4 151.059 34.94 151.059 35.7V42.84C151.059 43.6 150.879 44.16 150.519 44.52C150.199 44.84 149.659 45 148.899 45ZM142.599 12.36C142.879 12 143.119 11.66 143.319 11.34C143.519 10.98 143.619 10.58 143.619 10.14V9.18C143.619 8.5 143.459 8 143.139 7.68C142.859 7.36 142.399 7.2 141.759 7.2H123.459V7.8H141.759C142.079 7.8 142.359 7.9 142.599 8.1C142.879 8.26 143.019 8.62 143.019 9.18V10.02C143.019 10.42 142.939 10.74 142.779 10.98C142.659 11.22 142.459 11.52 142.179 11.88L124.599 34.44C124.319 34.8 124.079 35.16 123.879 35.52C123.679 35.84 123.579 36.22 123.579 36.66V37.62C123.579 38.3 123.719 38.8 123.999 39.12C124.319 39.44 124.799 39.6 125.439 39.6H145.659V39H125.439C125.119 39 124.819 38.92 124.539 38.76C124.299 38.56 124.179 38.18 124.179 37.62V36.78C124.179 36.38 124.239 36.06 124.359 35.82C124.519 35.58 124.739 35.28 125.019 34.92L142.599 12.36ZM194.568 33.66C194.568 35.5 194.288 37.18 193.728 38.7C193.208 40.18 192.248 41.46 190.848 42.54C189.488 43.58 187.588 44.4 185.148 45C182.748 45.6 179.688 45.9 175.968 45.9C172.248 45.9 169.168 45.6 166.728 45C164.288 44.4 162.368 43.58 160.968 42.54C159.608 41.46 158.648 40.18 158.088 38.7C157.568 37.18 157.308 35.5 157.308 33.66V13.2C157.308 11.36 157.568 9.7 158.088 8.22C158.648 6.7 159.608 5.4 160.968 4.32C162.368 3.24 164.288 2.4 166.728 1.8C169.168 1.2 172.248 0.899999 175.968 0.899999C179.688 0.899999 182.748 1.2 185.148 1.8C187.588 2.4 189.488 3.24 190.848 4.32C192.248 5.4 193.208 6.7 193.728 8.22C194.288 9.7 194.568 11.36 194.568 13.2V33.66ZM188.028 32.28V14.58C188.028 12.18 187.168 10.24 185.448 8.76C183.728 7.24 180.528 6.48 175.848 6.48C171.168 6.48 167.988 7.24 166.308 8.76C164.628 10.24 163.788 12.18 163.788 14.58V32.28C163.788 34.68 164.628 36.64 166.308 38.16C167.988 39.64 171.168 40.38 175.848 40.38C180.528 40.38 183.728 39.64 185.448 38.16C187.168 36.64 188.028 34.68 188.028 32.28ZM164.388 32.28V14.58C164.388 12.34 165.188 10.54 166.788 9.18C168.388 7.78 171.408 7.08 175.848 7.08C180.288 7.08 183.328 7.78 184.968 9.18C186.608 10.54 187.428 12.34 187.428 14.58V32.28C187.428 34.52 186.608 36.34 184.968 37.74C183.328 39.1 180.288 39.78 175.848 39.78C171.408 39.78 168.388 39.1 166.788 37.74C165.188 36.34 164.388 34.52 164.388 32.28ZM170.928 31.5C170.928 32.3 171.228 32.98 171.828 33.54C172.428 34.06 173.808 34.32 175.968 34.32C178.128 34.32 179.508 34.06 180.108 33.54C180.708 32.98 181.008 32.3 181.008 31.5V15.36C181.008 14.6 180.708 13.96 180.108 13.44C179.508 12.88 178.128 12.6 175.968 12.6C173.808 12.6 172.428 12.88 171.828 13.44C171.228 13.96 170.928 14.6 170.928 15.36V31.5ZM213.666 45H204.366C203.606 45 203.046 44.84 202.686 44.52C202.366 44.16 202.206 43.6 202.206 42.84V3.96C202.206 3.2 202.366 2.66 202.686 2.34C203.046 1.98 203.606 1.8 204.366 1.8H222.726C228.166 1.8 231.886 2.88 233.886 5.04C235.886 7.2 236.886 10.02 236.886 13.5V21.18C236.886 24.66 235.886 27.48 233.886 29.64C231.886 31.8 228.166 32.88 222.726 32.88H215.826V42.84C215.826 43.6 215.646 44.16 215.286 44.52C214.966 44.84 214.426 45 213.666 45ZM221.886 27.78C223.766 27.78 225.286 27.58 226.446 27.18C227.646 26.78 228.566 26.24 229.206 25.56C229.846 24.84 230.286 24 230.526 23.04C230.766 22.04 230.886 20.96 230.886 19.8V15.36C230.886 14.2 230.766 13.12 230.526 12.12C230.286 11.12 229.846 10.26 229.206 9.54C228.566 8.82 227.646 8.26 226.446 7.86C225.286 7.42 223.766 7.2 221.886 7.2H208.926V39.6H209.526V27.78H221.886ZM209.526 27.18V7.8H221.886C223.646 7.8 225.066 8 226.146 8.4C227.266 8.76 228.126 9.28 228.726 9.96C229.326 10.64 229.726 11.44 229.926 12.36C230.166 13.28 230.286 14.28 230.286 15.36V19.8C230.286 20.88 230.166 21.88 229.926 22.8C229.726 23.68 229.326 24.46 228.726 25.14C228.126 25.78 227.266 26.28 226.146 26.64C225.066 27 223.646 27.18 221.886 27.18H209.526ZM215.706 13.02V22.08H221.106C222.266 22.08 223.026 21.78 223.386 21.18C223.746 20.58 223.926 19.9 223.926 19.14V15.96C223.926 15.2 223.746 14.52 223.386 13.92C223.026 13.32 222.266 13.02 221.106 13.02H215.706Z" fill="#36CE00"/>
</svg>
